{
	"asset":{
		"generator":"Khronos glTF Blender I/O v3.6.27",
		"version":"2.0"
	},
	"extensionsUsed":[
		"KHR_materials_specular",
		"KHR_materials_ior"
	],
	"scene":0,
	"scenes":[
		{
			"name":"Scene",
			"nodes":[
				0,
				1,
				2
			]
		}
	],
	"nodes":[
		{
			"mesh":0,
			"name":"Orange",
			"rotation":[
				0,
				-0.7071066498756409,
				0,
				0.70710688829422
			],
			"scale":[
				1.4873744249343872,
				0.6700359582901001,
				1.3059407472610474
			],
			"translation":[
				0.009999998845160007,
				0.4042617976665497,
				-0.009999999776482582
			]
		},
		{
			"mesh":1,
			"name":"Legs",
			"rotation":[
				0,
				-0.3831098973751068,
				0,
				0.9237027764320374
			],
			"scale":[
				0.012297704815864563,
				0.012297704815864563,
				0.012297704815864563
			],
			"translation":[
				0.009999998845160007,
				0,
				-0.009999999776482582
			]
		},
		{
			"mesh":2,
			"name":"Seat",
			"rotation":[
				0,
				-0.7071066498756409,
				0,
				0.70710688829422
			],
			"scale":[
				1,
				1.093715786933899,
				0.9083424806594849
			],
			"translation":[
				0.010000001639127731,
				0.598329484462738,
				0.019999999552965164
			]
		}
	],
	"materials":[
		{
			"doubleSided":true,
			"extensions":{
				"KHR_materials_specular":{
					"specularColorFactor":[
						0.8084173749842914,
						0.8084173749842914,
						0.8084173749842914
					]
				},
				"KHR_materials_ior":{
					"ior":1.4500000476837158
				}
			},
			"name":"Fabric",
			"pbrMetallicRoughness":{
				"baseColorTexture":{
					"index":0
				},
				"metallicFactor":0,
				"roughnessFactor":0.836363673210144
			}
		},
		{
			"doubleSided":true,
			"extensions":{
				"KHR_materials_specular":{
					"specularColorFactor":[
						1.441055765861965,
						1.441055765861965,
						1.441055765861965
					]
				},
				"KHR_materials_ior":{
					"ior":1.4500000476837158
				}
			},
			"name":"Black Metal",
			"pbrMetallicRoughness":{
				"baseColorFactor":[
					0.0010918721091002226,
					0.0010918721091002226,
					0.0010918721091002226,
					1
				],
				"metallicFactor":0.3076923191547394,
				"roughnessFactor":0.35846155881881714
			}
		},
		{
			"doubleSided":true,
			"extensions":{
				"KHR_materials_specular":{
					"specularColorFactor":[
						1.0886687448376124,
						1.0886687448376124,
						1.0886687448376124
					]
				},
				"KHR_materials_ior":{
					"ior":1.4500000476837158
				}
			},
			"name":"Plastic",
			"pbrMetallicRoughness":{
				"baseColorTexture":{
					"index":1
				},
				"metallicFactor":0
			}
		}
	],
	"meshes":[
		{
			"name":"Cube.001",
			"primitives":[
				{
					"attributes":{
						"POSITION":0,
						"NORMAL":1,
						"TEXCOORD_0":2
					},
					"indices":3,
					"material":0
				}
			]
		},
		{
			"name":"Solid1",
			"primitives":[
				{
					"attributes":{
						"POSITION":4,
						"NORMAL":5
					},
					"indices":6,
					"material":1
				}
			]
		},
		{
			"name":"BB_004_016",
			"primitives":[
				{
					"attributes":{
						"POSITION":7,
						"NORMAL":8,
						"TEXCOORD_0":9
					},
					"indices":10,
					"material":2
				}
			]
		}
	],
	"textures":[
		{
			"sampler":0,
			"source":0
		},
		{
			"sampler":0,
			"source":1
		}
	],
	"images":[
		{
			"bufferView":4,
			"mimeType":"image/jpeg",
			"name":"Furnature"
		},
		{
			"bufferView":12,
			"mimeType":"image/png",
			"name":"White Texture"
		}
	],
	"accessors":[
		{
			"bufferView":0,
			"componentType":5126,
			"count":592,
			"max":[
				0.13607390224933624,
				0.030626367777585983,
				0.1518920511007309
			],
			"min":[
				-0.14897292852401733,
				-0.03856777399778366,
				-0.1527554988861084
			],
			"type":"VEC3"
		},
		{
			"bufferView":1,
			"componentType":5126,
			"count":592,
			"type":"VEC3"
		},
		{
			"bufferView":2,
			"componentType":5126,
			"count":592,
			"type":"VEC2"
		},
		{
			"bufferView":3,
			"componentType":5123,
			"count":2304,
			"type":"SCALAR"
		},
		{
			"bufferView":5,
			"componentType":5126,
			"count":312,
			"max":[
				28,
				30,
				28
			],
			"min":[
				-28,
				0,
				-28
			],
			"type":"VEC3"
		},
		{
			"bufferView":6,
			"componentType":5126,
			"count":312,
			"type":"VEC3"
		},
		{
			"bufferView":7,
			"componentType":5123,
			"count":564,
			"type":"SCALAR"
		},
		{
			"bufferView":8,
			"componentType":5126,
			"count":935,
			"max":[
				0.2712125778198242,
				0.12817583978176117,
				0.30430635809898376
			],
			"min":[
				-0.2712123692035675,
				-0.22896377742290497,
				-0.3040575087070465
			],
			"type":"VEC3"
		},
		{
			"bufferView":9,
			"componentType":5126,
			"count":935,
			"type":"VEC3"
		},
		{
			"bufferView":10,
			"componentType":5126,
			"count":935,
			"type":"VEC2"
		},
		{
			"bufferView":11,
			"componentType":5123,
			"count":3840,
			"type":"SCALAR"
		}
	],
	"bufferViews":[
		{
			"buffer":0,
			"byteLength":7104,
			"byteOffset":0,
			"target":34962
		},
		{
			"buffer":0,
			"byteLength":7104,
			"byteOffset":7104,
			"target":34962
		},
		{
			"buffer":0,
			"byteLength":4736,
			"byteOffset":14208,
			"target":34962
		},
		{
			"buffer":0,
			"byteLength":4608,
			"byteOffset":18944,
			"target":34963
		},
		{
			"buffer":0,
			"byteLength":895335,
			"byteOffset":23552
		},
		{
			"buffer":0,
			"byteLength":3744,
			"byteOffset":918888,
			"target":34962
		},
		{
			"buffer":0,
			"byteLength":3744,
			"byteOffset":922632,
			"target":34962
		},
		{
			"buffer":0,
			"byteLength":1128,
			"byteOffset":926376,
			"target":34963
		},
		{
			"buffer":0,
			"byteLength":11220,
			"byteOffset":927504,
			"target":34962
		},
		{
			"buffer":0,
			"byteLength":11220,
			"byteOffset":938724,
			"target":34962
		},
		{
			"buffer":0,
			"byteLength":7480,
			"byteOffset":949944,
			"target":34962
		},
		{
			"buffer":0,
			"byteLength":7680,
			"byteOffset":957424,
			"target":34963
		},
		{
			"buffer":0,
			"byteLength":118259,
			"byteOffset":965104
		}
	],
	"samplers":[
		{
			"magFilter":9729,
			"minFilter":9987
		}
	],
	"buffers":[
		{
			"byteLength":1083364,
			"uri":"data:application/octet-stream;base64,"
		}
	]
}
