{
	"asset":{
		"generator":"Khronos glTF Blender I/O v3.6.27",
		"version":"2.0"
	},
	"extensionsUsed":[
		"KHR_materials_specular",
		"KHR_materials_ior"
	],
	"scene":0,
	"scenes":[
		{
			"name":"Scene",
			"nodes":[
				0,
				1,
				2,
				3,
				4,
				5,
				6
			]
		}
	],
	"nodes":[
		{
			"mesh":0,
			"name":"Solid1",
			"scale":[
				0.009999999776482582,
				0.009999999776482582,
				0.009999999776482582
			],
			"translation":[
				-0.699999988079071,
				0.699999988079071,
				-0.5999999642372131
			]
		},
		{
			"mesh":1,
			"name":"Solid1.002",
			"scale":[
				0.009999999776482582,
				0.009999999776482582,
				0.009999999776482582
			],
			"translation":[
				-0.699999988079071,
				0.699999988079071,
				-0.05999999865889549
			]
		},
		{
			"mesh":2,
			"name":"Solid1.001",
			"scale":[
				0.009999999776482582,
				0.009999999776482582,
				0.009999999776482582
			],
			"translation":[
				-0.699999988079071,
				0.699999988079071,
				0.05999999865889549
			]
		},
		{
			"mesh":3,
			"name":"Cube",
			"scale":[
				0.6500000953674316,
				0.03000001423060894,
				0.010000037029385567
			],
			"translation":[
				0,
				0.6799999475479126,
				-0.44999998807907104
			]
		},
		{
			"mesh":4,
			"name":"Cube.001",
			"scale":[
				0.6500000953674316,
				0.03000001423060894,
				0.010000037029385567
			],
			"translation":[
				0,
				0.6799999475479126,
				0.44999998807907104
			]
		},
		{
			"mesh":5,
			"name":"Solid2",
			"scale":[
				0.009999999776482582,
				0.009999999776482582,
				0.009999999776482582
			],
			"translation":[
				-0.6599999666213989,
				0,
				0.5199999809265137
			]
		},
		{
			"mesh":6,
			"name":"Solid2.001",
			"scale":[
				0.009999999776482582,
				0.009999999776482582,
				0.009999999776482582
			],
			"translation":[
				0.5999999642372131,
				0,
				0.5199999809265137
			]
		}
	],
	"materials":[
		{
			"doubleSided":true,
			"extensions":{
				"KHR_materials_specular":{
					"specularColorFactor":[
						1.0886687448376124,
						1.0886687448376124,
						1.0886687448376124
					]
				},
				"KHR_materials_ior":{
					"ior":1.4500000476837158
				}
			},
			"name":"Surface 1",
			"pbrMetallicRoughness":{
				"baseColorTexture":{
					"index":0
				},
				"metallicFactor":0,
				"roughnessFactor":0.8681818842887878
			}
		},
		{
			"doubleSided":true,
			"extensions":{
				"KHR_materials_specular":{
					"specularColorFactor":[
						1.142563184677125,
						1.142563184677125,
						1.142563184677125
					]
				},
				"KHR_materials_ior":{
					"ior":1.4500000476837158
				}
			},
			"name":"Material.002",
			"pbrMetallicRoughness":{
				"baseColorTexture":{
					"index":1
				},
				"metallicFactor":0,
				"roughnessFactor":0.5
			}
		},
		{
			"doubleSided":true,
			"extensions":{
				"KHR_materials_specular":{
					"specularColorFactor":[
						0,
						0,
						0
					]
				},
				"KHR_materials_ior":{
					"ior":1.4500000476837158
				}
			},
			"name":"Legs",
			"pbrMetallicRoughness":{
				"baseColorFactor":[
					0.011645429767668247,
					0.011645429767668247,
					0.011645429767668247,
					1
				],
				"metallicFactor":0.6590908765792847,
				"roughnessFactor":0.4227272868156433
			}
		}
	],
	"meshes":[
		{
			"name":"Solid1",
			"primitives":[
				{
					"attributes":{
						"POSITION":0,
						"NORMAL":1,
						"TEXCOORD_0":2
					},
					"indices":3,
					"material":0
				}
			]
		},
		{
			"name":"Solid1.002",
			"primitives":[
				{
					"attributes":{
						"POSITION":4,
						"NORMAL":5,
						"TEXCOORD_0":6
					},
					"indices":7,
					"material":1
				}
			]
		},
		{
			"name":"Solid1.001",
			"primitives":[
				{
					"attributes":{
						"POSITION":8,
						"NORMAL":9,
						"TEXCOORD_0":10
					},
					"indices":3,
					"material":0
				}
			]
		},
		{
			"name":"Cube.001",
			"primitives":[
				{
					"attributes":{
						"POSITION":11,
						"NORMAL":12,
						"TEXCOORD_0":13
					},
					"indices":14,
					"material":2
				}
			]
		},
		{
			"name":"Cube.002",
			"primitives":[
				{
					"attributes":{
						"POSITION":15,
						"NORMAL":16,
						"TEXCOORD_0":17
					},
					"indices":14,
					"material":2
				}
			]
		},
		{
			"name":"Solid2",
			"primitives":[
				{
					"attributes":{
						"POSITION":18,
						"NORMAL":19
					},
					"indices":20,
					"material":2
				}
			]
		},
		{
			"name":"Solid2.001",
			"primitives":[
				{
					"attributes":{
						"POSITION":21,
						"NORMAL":22
					},
					"indices":20,
					"material":2
				}
			]
		}
	],
	"textures":[
		{
			"sampler":0,
			"source":0
		},
		{
			"sampler":0,
			"source":1
		}
	],
	"images":[
		{
			"bufferView":4,
			"mimeType":"image/png",
			"name":"White Texture"
		},
		{
			"bufferView":9,
			"mimeType":"image/jpeg",
			"name":"plywood_diff_1k"
		}
	],
	"accessors":[
		{
			"bufferView":0,
			"componentType":5126,
			"count":96,
			"max":[
				140,
				2.5,
				54
			],
			"min":[
				0,
				0,
				0
			],
			"type":"VEC3"
		},
		{
			"bufferView":1,
			"componentType":5126,
			"count":96,
			"type":"VEC3"
		},
		{
			"bufferView":2,
			"componentType":5126,
			"count":96,
			"type":"VEC2"
		},
		{
			"bufferView":3,
			"componentType":5123,
			"count":132,
			"type":"SCALAR"
		},
		{
			"bufferView":5,
			"componentType":5126,
			"count":272,
			"max":[
				140,
				2.5,
				12
			],
			"min":[
				0,
				0,
				0
			],
			"type":"VEC3"
		},
		{
			"bufferView":6,
			"componentType":5126,
			"count":272,
			"type":"VEC3"
		},
		{
			"bufferView":7,
			"componentType":5126,
			"count":272,
			"type":"VEC2"
		},
		{
			"bufferView":8,
			"componentType":5123,
			"count":516,
			"type":"SCALAR"
		},
		{
			"bufferView":10,
			"componentType":5126,
			"count":96,
			"max":[
				140,
				2.5,
				54
			],
			"min":[
				0,
				0,
				0
			],
			"type":"VEC3"
		},
		{
			"bufferView":11,
			"componentType":5126,
			"count":96,
			"type":"VEC3"
		},
		{
			"bufferView":12,
			"componentType":5126,
			"count":96,
			"type":"VEC2"
		},
		{
			"bufferView":13,
			"componentType":5126,
			"count":24,
			"max":[
				1,
				1,
				1
			],
			"min":[
				-1,
				-1,
				-1
			],
			"type":"VEC3"
		},
		{
			"bufferView":14,
			"componentType":5126,
			"count":24,
			"type":"VEC3"
		},
		{
			"bufferView":15,
			"componentType":5126,
			"count":24,
			"type":"VEC2"
		},
		{
			"bufferView":16,
			"componentType":5123,
			"count":36,
			"type":"SCALAR"
		},
		{
			"bufferView":17,
			"componentType":5126,
			"count":24,
			"max":[
				1,
				1,
				1
			],
			"min":[
				-1,
				-1,
				-1
			],
			"type":"VEC3"
		},
		{
			"bufferView":18,
			"componentType":5126,
			"count":24,
			"type":"VEC3"
		},
		{
			"bufferView":19,
			"componentType":5126,
			"count":24,
			"type":"VEC2"
		},
		{
			"bufferView":20,
			"componentType":5126,
			"count":120,
			"max":[
				6,
				70,
				5.615913391113281
			],
			"min":[
				0,
				0,
				-109.61591339111328
			],
			"type":"VEC3"
		},
		{
			"bufferView":21,
			"componentType":5126,
			"count":120,
			"type":"VEC3"
		},
		{
			"bufferView":22,
			"componentType":5123,
			"count":228,
			"type":"SCALAR"
		},
		{
			"bufferView":23,
			"componentType":5126,
			"count":120,
			"max":[
				6,
				70,
				5.615913391113281
			],
			"min":[
				0,
				0,
				-109.61591339111328
			],
			"type":"VEC3"
		},
		{
			"bufferView":24,
			"componentType":5126,
			"count":120,
			"type":"VEC3"
		}
	],
	"bufferViews":[
		{
			"buffer":0,
			"byteLength":1152,
			"byteOffset":0,
			"target":34962
		},
		{
			"buffer":0,
			"byteLength":1152,
			"byteOffset":1152,
			"target":34962
		},
		{
			"buffer":0,
			"byteLength":768,
			"byteOffset":2304,
			"target":34962
		},
		{
			"buffer":0,
			"byteLength":264,
			"byteOffset":3072,
			"target":34963
		},
		{
			"buffer":0,
			"byteLength":118259,
			"byteOffset":3336
		},
		{
			"buffer":0,
			"byteLength":3264,
			"byteOffset":121596,
			"target":34962
		},
		{
			"buffer":0,
			"byteLength":3264,
			"byteOffset":124860,
			"target":34962
		},
		{
			"buffer":0,
			"byteLength":2176,
			"byteOffset":128124,
			"target":34962
		},
		{
			"buffer":0,
			"byteLength":1032,
			"byteOffset":130300,
			"target":34963
		},
		{
			"buffer":0,
			"byteLength":211314,
			"byteOffset":131332
		},
		{
			"buffer":0,
			"byteLength":1152,
			"byteOffset":342648,
			"target":34962
		},
		{
			"buffer":0,
			"byteLength":1152,
			"byteOffset":343800,
			"target":34962
		},
		{
			"buffer":0,
			"byteLength":768,
			"byteOffset":344952,
			"target":34962
		},
		{
			"buffer":0,
			"byteLength":288,
			"byteOffset":345720,
			"target":34962
		},
		{
			"buffer":0,
			"byteLength":288,
			"byteOffset":346008,
			"target":34962
		},
		{
			"buffer":0,
			"byteLength":192,
			"byteOffset":346296,
			"target":34962
		},
		{
			"buffer":0,
			"byteLength":72,
			"byteOffset":346488,
			"target":34963
		},
		{
			"buffer":0,
			"byteLength":288,
			"byteOffset":346560,
			"target":34962
		},
		{
			"buffer":0,
			"byteLength":288,
			"byteOffset":346848,
			"target":34962
		},
		{
			"buffer":0,
			"byteLength":192,
			"byteOffset":347136,
			"target":34962
		},
		{
			"buffer":0,
			"byteLength":1440,
			"byteOffset":347328,
			"target":34962
		},
		{
			"buffer":0,
			"byteLength":1440,
			"byteOffset":348768,
			"target":34962
		},
		{
			"buffer":0,
			"byteLength":456,
			"byteOffset":350208,
			"target":34963
		},
		{
			"buffer":0,
			"byteLength":1440,
			"byteOffset":350664,
			"target":34962
		},
		{
			"buffer":0,
			"byteLength":1440,
			"byteOffset":352104,
			"target":34962
		}
	],
	"samplers":[
		{
			"magFilter":9729,
			"minFilter":9987
		}
	],
	"buffers":[
		{
			"byteLength":353544,
			"uri":"data:application/octet-stream;base64,"
		}
	]
}
